<?xml version="1.0" encoding="UTF-8"?><svg id="Capa_1" xmlns="http://www.w3.org/2000/svg" viewBox="0 0 487.09 38.73"><defs><style>.cls-1{fill:#efeeee;}.cls-2{fill:#b9b8b8;}.cls-3{fill:#9b9b9a;}.cls-4{fill:#7c7c7b;}.cls-5{fill:#474746;}.cls-6{fill:#343333;}.cls-7{fill:#2a2a29;}.cls-8{fill:#c6c6c6;}.cls-9{fill:#d4d4d4;}.cls-10{fill:#5a5a59;}.cls-11{fill:#fff;}.cls-12{fill:#8c8c8b;}.cls-13{fill:#6b6b6a;}.cls-14{fill:#aaaaa9;}.cls-15{fill:#e2e1e1;}</style></defs><path class="cls-11" d="M0,.91l.24-.24h13.04c6.88,0,11.35,3.51,11.35,10.1s-4.47,10.1-11.35,10.1h-7.65l-1.2,1.2v12.7l-.24.24H.24l-.24-.24V.91ZM5.63,17.03h7.65c4.52,0,6.83-1.97,6.83-6.25s-2.31-6.25-6.83-6.25h-7.65l-1.2,1.2v10.1l1.2,1.2Z"/><path class="cls-1" d="M21.41,34.69L34.93.91l.29-.24h3.99l.29.24,13.47,33.77-.24.34h-4.14l-.29-.24-3.27-8.56-1.92-1.44h-11.98l-1.92,1.44-3.27,8.56-.29.24h-3.99l-.24-.34ZM41.76,21.07l.96-.96-4.96-13.09h-1.2l-5,13.09.96.96h9.24Z"/><path class="cls-15" d="M54.18,25.31l.24-.34h3.66l.24.34c.19,4.52,3.8,6.93,9.24,6.93s8.61-2.31,8.61-6.3c0-3.75-2.93-5.1-7.65-6.16l-3.42-.77c-5.53-1.25-10.01-3.7-10.01-9.48S59.71,0,66.93,0s12.46,4.23,12.65,10.1l-.24.34h-3.56l-.24-.34c-.19-3.99-3.61-6.64-8.61-6.64-4.47,0-7.55,2.21-7.55,5.73s2.84,5.1,6.69,5.97l3.42.77c6.88,1.54,10.97,3.99,10.97,9.67,0,5.97-4.71,10.1-12.89,10.1s-13.18-3.95-13.38-10.39Z"/><path class="cls-9" d="M83.62,17.85c0-10.63,6.5-17.85,15.92-17.85s15.93,7.22,15.93,17.85-6.5,17.85-15.93,17.85-15.92-7.22-15.92-17.85ZM110.95,17.85c0-8.28-4.52-14-11.4-14s-11.4,5.73-11.4,14,4.52,14,11.4,14,11.4-5.73,11.4-14Z"/><path class="cls-8" d="M118.07,25.31l.24-.34h3.66l.24.34c.19,4.52,3.8,6.93,9.24,6.93s8.61-2.31,8.61-6.3c0-3.75-2.93-5.1-7.65-6.16l-3.42-.77c-5.53-1.25-10.01-3.7-10.01-9.48s4.62-9.53,11.84-9.53,12.46,4.23,12.65,10.1l-.24.34h-3.56l-.24-.34c-.19-3.99-3.61-6.64-8.61-6.64-4.47,0-7.55,2.21-7.55,5.73s2.84,5.1,6.69,5.97l3.42.77c6.88,1.54,10.97,3.99,10.97,9.67,0,5.97-4.71,10.1-12.89,10.1s-13.18-3.95-13.38-10.39Z"/><path class="cls-2" d="M180.04,34.26l-1.2-.24c-2.02,1.11-4.72,1.68-7.22,1.68-9.43,0-15.93-7.22-15.93-17.85S162.19,0,171.62,0s15.92,7.22,15.92,17.85c0,5.44-1.68,9.86-4.52,13.04v1.44l3.46,4.14v.24l-2.45,2.02h-.24l-3.75-4.47ZM176.09,30.94v-1.44l-4.67-5.48v-.24l2.45-2.02h.24l4.81,5.68,1.2.24c1.88-2.45,2.89-5.87,2.89-9.81,0-8.28-4.52-14-11.4-14s-11.4,5.73-11.4,14,4.52,14,11.4,14c1.64,0,3.22-.34,4.47-.91Z"/><path class="cls-14" d="M191.87,21.41V.91l.24-.24h3.95l.24.24v20.5c0,6.01,2.21,10.44,8.95,10.44s8.95-4.43,8.95-10.44V.91l.24-.24h3.95l.24.24v20.5c0,9.24-4.67,14.29-13.38,14.29s-13.38-5.05-13.38-14.29Z"/><path class="cls-3" d="M224.21.91l.24-.24h23.19l.24.24v3.37l-.24.24h-17.8l-1.2,1.2v8.71l1.2,1.2h16.31l.24.24v3.27l-.24.24h-16.31l-1.2,1.2v9.38l1.2,1.2h17.99l.24.24v3.37l-.24.24h-23.38l-.24-.24V.91Z"/><path class="cls-12" d="M260.48,34.78V.91l.24-.24h4.33l.34.24,16.41,26.17h1.2V.91l.24-.24h3.75l.24.24v33.87l-.24.24h-4.23l-.34-.24-16.5-26.12h-1.2v26.12l-.24.24h-3.75l-.24-.24Z"/><path class="cls-4" d="M291.75,17.85c0-10.63,6.49-17.85,15.92-17.85s15.93,7.22,15.93,17.85-6.5,17.85-15.93,17.85-15.92-7.22-15.92-17.85ZM319.08,17.85c0-8.28-4.52-14-11.4-14s-11.4,5.73-11.4,14,4.52,14,11.4,14,11.4-5.73,11.4-14Z"/><path class="cls-13" d="M334.86,25.31l.24-.34h3.66l.24.34c.19,4.52,3.8,6.93,9.24,6.93s8.61-2.31,8.61-6.3c0-3.75-2.93-5.1-7.65-6.16l-3.42-.77c-5.53-1.25-10.01-3.7-10.01-9.48s4.62-9.53,11.84-9.53,12.46,4.23,12.65,10.1l-.24.34h-3.56l-.24-.34c-.19-3.99-3.61-6.64-8.61-6.64-4.47,0-7.55,2.21-7.55,5.73s2.84,5.1,6.69,5.97l3.42.77c6.88,1.54,10.97,3.99,10.97,9.67,0,5.97-4.71,10.1-12.89,10.1s-13.18-3.95-13.38-10.39Z"/><path class="cls-10" d="M365.85.91l.24-.24h23.19l.24.24v3.37l-.24.24h-17.8l-1.2,1.2v8.71l1.2,1.2h16.31l.24.24v3.27l-.24.24h-16.31l-1.2,1.2v9.38l1.2,1.2h17.99l.24.24v3.37l-.24.24h-23.38l-.24-.24V.91Z"/><path class="cls-5" d="M411.84,34.78l-11.98-33.77.24-.34h4.14l.29.24,9.09,27.47h1.2l9.14-27.47.29-.24h3.95l.24.34-11.98,33.77-.29.24h-4.04l-.29-.24Z"/><path class="cls-6" d="M431.95.91l.24-.24h23.19l.24.24v3.37l-.24.24h-17.8l-1.2,1.2v8.71l1.2,1.2h16.31l.24.24v3.27l-.24.24h-16.31l-1.2,1.2v9.38l1.2,1.2h17.99l.24.24v3.37l-.24.24h-23.38l-.24-.24V.91Z"/><path class="cls-7" d="M460.34,34.78V.91l.24-.24h4.33l.34.24,16.41,26.17h1.2V.91l.24-.24h3.75l.24.24v33.87l-.24.24h-4.23l-.34-.24-16.5-26.12h-1.2v26.12l-.24.24h-3.75l-.24-.24Z"/></svg>